<?xml version="1.0" encoding="UTF-8" ?>
<!DOCTYPE svg PUBLIC "-//W3C//DTD SVG 1.1//EN" "http://www.w3.org/Graphics/SVG/1.1/DTD/svg11.dtd">
<svg width="1000pt" height="1000pt" viewBox="0 0 1000 1000" version="1.1" xmlns="http://www.w3.org/2000/svg">
<g id="#fed807ff">
<path fill="#fed807" opacity="1.00" d=" M 574.18 181.24 C 575.86 178.89 576.97 176.16 578.88 173.98 C 558.09 257.97 537.26 341.97 516.36 425.94 C 494.79 425.61 472.51 427.00 452.47 435.71 C 438.55 441.71 426.30 452.38 420.13 466.41 C 441.71 468.36 463.25 470.97 484.86 472.66 C 485.98 467.60 489.75 462.98 494.97 461.88 C 499.72 460.86 505.63 461.00 509.11 464.88 C 512.29 468.46 511.81 473.54 511.88 477.98 C 490.81 477.54 469.41 477.63 448.85 482.78 C 438.85 485.49 428.41 489.57 421.91 498.05 C 414.36 508.14 415.56 523.61 424.33 532.59 C 426.23 534.61 428.49 536.24 430.65 537.98 C 405.55 535.07 380.50 531.74 355.38 528.96 C 361.76 517.94 368.89 507.36 375.57 496.52 C 441.75 391.41 507.99 286.34 574.18 181.24 Z" />
<path fill="#fed807" opacity="1.00" d=" M 0.00 426.41 C 23.60 425.87 47.24 426.34 70.85 426.18 C 70.87 440.46 70.83 454.73 70.88 469.01 C 85.24 455.01 99.57 440.97 113.93 426.96 C 114.95 425.81 116.65 426.30 117.99 426.15 C 143.67 426.23 169.35 426.15 195.03 426.19 C 177.34 443.50 159.56 460.71 141.87 478.02 C 160.15 507.73 178.64 537.31 196.94 567.01 C 171.28 567.09 145.62 567.00 119.96 567.06 C 118.67 566.84 116.77 567.48 116.04 566.04 C 107.82 553.10 99.72 540.09 91.42 527.21 C 85.22 533.43 78.92 539.54 72.62 545.66 C 71.74 546.54 70.64 547.50 70.87 548.92 C 70.78 554.95 70.90 560.98 70.85 567.01 C 47.23 566.90 23.60 567.36 0.00 566.80 L 0.00 426.41 Z" />
<path fill="#fed807" opacity="1.00" d=" M 199.75 426.18 C 223.23 426.17 246.71 426.20 270.19 426.16 C 270.28 449.10 270.20 472.05 270.23 494.99 C 270.29 502.62 271.90 510.90 277.55 516.44 C 288.32 526.69 307.53 526.57 318.03 515.99 C 323.09 510.71 324.75 503.13 324.87 496.03 C 324.97 472.75 324.80 449.47 324.96 426.19 C 347.50 426.16 370.04 426.21 392.59 426.16 C 371.58 467.34 350.80 508.66 329.73 549.80 C 329.57 550.23 329.25 551.09 329.09 551.52 C 342.73 551.60 356.36 552.40 370.00 552.59 C 369.05 554.13 367.31 554.82 365.85 555.75 C 348.75 565.81 328.76 569.59 309.18 570.67 C 286.54 571.59 263.24 570.28 241.94 561.91 C 228.59 556.56 215.88 548.23 207.80 536.10 C 202.46 528.11 199.78 518.51 199.74 508.93 C 199.75 481.35 199.74 453.76 199.75 426.18 Z" />
<path fill="#fed807" opacity="1.00" d=" M 613.43 426.19 C 646.64 426.16 679.84 426.19 713.05 426.18 C 726.06 426.15 739.22 427.51 751.61 431.64 C 764.16 435.86 776.29 443.28 783.29 454.82 C 790.07 465.90 790.53 479.56 788.81 492.10 C 786.83 505.53 777.65 516.90 766.15 523.67 C 774.17 535.45 782.13 547.28 790.11 559.09 C 810.18 514.80 830.24 470.51 850.27 426.20 C 878.37 426.19 906.47 426.12 934.57 426.24 C 954.75 470.08 975.20 513.81 995.44 557.61 C 997.55 560.24 997.56 563.98 1000.00 566.35 L 1000.00 566.77 C 991.35 567.32 982.68 566.93 974.02 567.04 C 957.11 566.94 940.20 567.24 923.31 566.89 C 921.40 561.71 919.18 556.65 917.27 551.48 C 899.26 551.27 881.26 551.56 863.25 551.33 C 861.01 556.47 859.13 561.76 857.07 566.98 C 811.78 567.01 766.46 567.18 721.17 566.91 C 713.77 556.76 707.04 546.09 699.90 535.73 C 694.61 535.72 689.32 535.73 684.03 535.72 C 683.98 546.16 684.12 556.60 683.96 567.03 C 660.44 566.97 636.92 567.19 613.41 566.93 C 613.57 562.77 613.16 558.58 613.62 554.45 C 617.30 546.86 620.94 539.23 625.00 531.82 C 640.40 501.07 656.17 470.49 671.63 439.76 C 652.22 438.08 632.77 436.89 613.40 434.72 C 613.43 431.87 613.44 429.03 613.43 426.19 M 684.11 467.25 C 683.90 476.37 684.03 485.50 684.09 494.63 C 690.43 494.49 696.76 494.65 703.10 494.56 C 707.94 494.41 713.20 493.26 716.59 489.54 C 719.75 486.15 719.33 481.10 718.85 476.85 C 717.64 470.97 711.31 468.06 705.85 467.57 C 698.62 466.97 691.35 467.52 684.11 467.25 M 889.26 483.76 C 885.31 493.89 881.35 504.02 877.42 514.16 C 885.55 514.18 893.68 514.15 901.81 514.18 C 898.33 505.02 894.49 495.99 890.94 486.86 C 890.53 485.73 889.98 484.69 889.26 483.76 Z" />
<path fill="#fed807" opacity="1.00" d=" M 578.35 450.95 C 600.78 454.92 623.14 459.23 645.58 463.09 C 570.41 582.76 494.94 702.26 419.65 821.86 C 419.36 822.20 418.78 822.89 418.48 823.23 C 439.45 739.55 460.05 655.78 480.90 572.07 C 483.10 563.07 485.41 554.10 487.47 545.06 C 499.22 542.35 509.69 535.57 518.13 527.09 C 521.54 532.31 525.08 537.44 528.46 542.69 C 547.23 542.73 566.01 542.68 584.78 542.71 C 584.79 520.49 584.80 498.26 584.78 476.04 C 584.80 467.32 582.87 458.48 578.35 450.95 Z" />
<path fill="#fed807" opacity="1.00" d=" M 491.52 500.43 C 497.59 496.82 505.03 496.75 511.90 496.88 C 511.77 501.14 512.00 505.42 511.72 509.68 C 506.15 514.10 498.26 516.03 491.51 513.41 C 486.43 511.04 486.86 503.04 491.52 500.43 Z" />
<path fill="#fed807" opacity="1.00" d=" M 0.00 615.23 C 2.60 615.04 5.21 615.06 7.82 615.08 C 7.81 622.75 7.80 630.43 7.82 638.11 C 18.03 638.12 28.24 638.11 38.44 638.11 C 38.46 630.44 38.48 622.78 38.43 615.11 C 41.01 615.08 43.59 615.07 46.16 615.09 C 46.09 632.93 46.30 650.78 46.06 668.62 C 43.53 668.59 40.99 668.57 38.46 668.57 C 38.46 660.64 38.47 652.71 38.45 644.78 C 28.24 644.78 18.03 644.78 7.82 644.78 C 7.67 652.50 8.08 660.22 7.87 667.94 C 6.14 669.96 2.47 668.29 0.00 668.85 L 0.00 615.23 Z" />
<path fill="#fed807" opacity="1.00" d=" M 78.15 615.14 C 80.74 615.06 83.33 615.06 85.92 615.10 C 93.89 632.98 102.25 650.68 110.07 668.61 C 107.43 668.58 104.79 668.57 102.14 668.62 C 100.00 664.21 98.24 659.64 96.10 655.24 C 86.69 655.34 77.28 655.27 67.87 655.27 C 65.80 659.70 64.06 664.29 61.82 668.65 C 59.23 668.56 56.64 668.57 54.05 668.61 C 61.98 650.74 70.23 633.01 78.15 615.14 M 70.56 649.10 C 78.20 649.10 85.84 649.11 93.48 649.09 C 89.67 640.43 85.89 631.75 82.02 623.12 C 78.15 631.75 74.39 640.44 70.56 649.10 Z" />
<path fill="#fed807" opacity="1.00" d=" M 107.15 615.33 C 109.96 614.90 112.81 615.06 115.64 615.16 C 121.44 628.80 127.55 642.31 133.40 655.92 C 133.78 656.80 134.29 657.60 134.93 658.34 C 141.38 643.96 147.70 629.51 154.07 615.09 C 156.64 615.08 159.22 615.07 161.79 615.04 C 154.11 632.93 146.16 650.71 138.40 668.57 C 135.82 668.58 133.25 668.58 130.68 668.56 C 122.83 650.82 115.19 632.98 107.15 615.33 Z" />
<path fill="#fed807" opacity="1.00" d=" M 158.89 668.61 C 166.44 650.59 174.95 632.96 182.87 615.08 C 185.47 615.05 188.07 615.05 190.66 615.18 C 198.55 633.05 206.80 650.77 214.83 668.58 C 212.10 668.59 209.37 668.59 206.64 668.55 C 204.74 664.11 202.77 659.69 200.82 655.28 C 191.37 655.29 181.92 655.28 172.48 655.29 C 170.52 659.72 168.59 664.17 166.61 668.59 C 164.03 668.57 161.46 668.58 158.89 668.61 M 186.56 623.13 C 182.88 631.79 179.00 640.38 175.23 649.00 C 182.83 649.21 190.45 649.07 198.06 649.08 C 194.30 640.40 190.59 631.69 186.56 623.13 Z" />
<path fill="#fed807" opacity="1.00" d=" M 224.94 622.96 C 234.78 612.73 252.60 611.45 263.74 620.26 C 264.49 621.13 266.12 621.70 265.98 623.06 C 264.62 624.75 262.94 626.15 261.38 627.66 C 252.53 617.95 234.67 619.70 228.16 631.20 C 222.91 639.91 225.08 652.53 233.57 658.41 C 241.92 664.50 254.36 663.40 261.54 655.96 C 263.17 657.61 264.80 659.25 266.41 660.92 C 255.32 672.78 233.92 671.85 223.68 659.33 C 215.13 649.14 215.60 632.50 224.94 622.96 Z" />
<path fill="#fed807" opacity="1.00" d=" M 277.21 615.10 C 279.77 615.07 282.33 615.07 284.89 615.08 C 284.85 632.93 284.96 650.77 284.84 668.62 C 282.30 668.57 279.77 668.57 277.24 668.59 C 277.20 650.76 277.26 632.93 277.21 615.10 Z" />
<path fill="#fed807" opacity="1.00" d=" M 301.11 615.08 C 303.66 615.07 306.21 615.07 308.77 615.10 C 308.73 630.70 308.75 646.29 308.76 661.89 C 318.41 661.94 328.07 661.76 337.72 661.98 C 337.71 664.18 337.70 666.38 337.70 668.59 C 325.52 668.60 313.35 668.53 301.18 668.63 C 301.03 650.78 301.16 632.93 301.11 615.08 Z" />
<path fill="#fed807" opacity="1.00" d=" M 346.38 615.12 C 348.95 615.07 351.52 615.06 354.09 615.08 C 354.00 632.93 354.28 650.80 353.94 668.65 C 351.43 668.58 348.92 668.57 346.42 668.58 C 346.40 650.76 346.46 632.94 346.38 615.12 Z" />
<path fill="#fed807" opacity="1.00" d=" M 369.89 615.11 C 372.47 615.06 375.05 615.06 377.63 615.12 C 377.57 625.01 377.61 634.90 377.61 644.79 C 387.21 634.95 396.88 625.17 406.33 615.19 C 409.34 615.03 412.35 615.06 415.37 615.08 C 407.82 623.16 400.15 631.13 392.54 639.16 C 400.61 648.99 408.78 658.75 416.81 668.61 C 413.74 668.58 410.68 668.59 407.62 668.53 C 400.99 660.59 394.08 652.89 387.45 644.95 C 384.04 648.13 380.84 651.53 377.59 654.87 C 377.62 659.44 377.59 664.01 377.60 668.58 C 375.09 668.57 372.59 668.58 370.09 668.63 C 369.64 650.80 370.02 632.95 369.89 615.11 Z" />
</g>
</svg>
