<?xml version="1.0" encoding="UTF-8" ?>
<!DOCTYPE svg PUBLIC "-//W3C//DTD SVG 1.1//EN" "http://www.w3.org/Graphics/SVG/1.1/DTD/svg11.dtd">
<svg width="1083pt" height="459pt" viewBox="0 0 1083 459" version="1.1" xmlns="http://www.w3.org/2000/svg">
<g id="#fc9c11ff">
<path fill="#fc9c11" opacity="1.00" d=" M 253.62 0.00 L 302.44 0.00 C 302.44 93.65 302.44 187.31 302.44 280.96 C 317.41 281.01 332.38 280.85 347.35 280.78 C 314.94 288.76 284.22 302.03 253.60 315.04 C 253.60 210.02 253.55 105.01 253.62 0.00 Z" />
<path fill="#fc9c11" opacity="1.00" d=" M 415.87 2.94 C 433.77 -0.01 451.93 1.95 469.95 1.94 C 488.32 1.96 506.70 2.24 525.07 1.64 C 534.61 1.25 545.37 2.44 552.49 9.50 C 559.28 16.39 559.77 26.59 559.57 35.69 C 559.77 118.14 559.60 200.58 559.66 283.02 C 559.54 292.72 560.39 302.80 556.92 312.07 C 555.80 314.60 554.73 317.41 552.43 319.12 C 543.00 307.46 529.47 300.18 516.11 293.93 C 509.46 290.80 502.67 287.99 495.76 285.51 C 500.79 285.47 505.81 285.53 510.83 285.47 C 510.79 204.99 510.83 124.52 510.81 44.04 C 488.74 44.03 466.68 44.02 444.61 44.04 C 444.42 120.62 444.59 197.20 444.53 273.78 C 428.13 272.15 411.59 272.28 395.15 273.13 C 395.68 195.38 395.16 117.63 395.45 39.88 C 395.78 30.67 395.07 20.53 400.48 12.53 C 403.99 7.36 409.77 4.02 415.87 2.94 Z" />
<path fill="#fc9c11" opacity="1.00" d=" M 571.94 0.60 C 601.29 0.52 630.64 0.56 659.99 0.58 C 670.31 0.76 680.82 0.19 690.91 2.84 C 707.83 7.13 723.07 19.19 729.68 35.53 C 733.29 44.20 734.38 53.69 734.31 63.02 C 734.31 123.34 734.32 183.67 734.30 243.99 C 733.94 259.67 735.48 275.99 729.58 290.91 C 724.44 304.56 713.12 315.45 699.64 320.83 C 691.27 324.41 682.07 325.37 673.04 325.41 C 639.32 325.40 605.60 325.42 571.88 325.40 C 571.91 217.14 571.79 108.87 571.94 0.60 M 621.13 42.73 C 620.97 123.03 621.12 203.34 621.06 283.64 C 631.37 283.06 641.68 284.27 652.00 283.99 C 660.49 283.77 669.70 283.16 676.67 277.72 C 681.99 273.09 684.47 265.94 684.93 259.05 C 686.65 244.06 684.90 229.00 685.09 213.98 C 685.16 174.64 684.95 135.30 685.20 95.96 C 685.25 84.27 686.29 72.45 684.09 60.90 C 682.70 53.16 676.91 45.98 669.09 44.15 C 653.32 40.20 637.08 44.07 621.13 42.73 Z" />
<path fill="#fc9c11" opacity="1.00" d=" M 777.64 1.83 C 791.73 0.61 805.86 1.87 819.97 1.91 C 840.63 2.03 861.30 2.18 881.96 1.57 C 891.50 1.71 902.55 4.34 907.78 13.14 C 912.99 21.09 911.84 30.94 912.12 39.96 C 912.21 122.97 912.13 205.97 912.16 288.98 C 912.19 299.03 912.23 310.22 905.76 318.56 C 900.63 325.08 891.90 326.72 884.05 326.82 C 850.70 327.34 817.35 326.76 784.00 327.16 C 774.53 327.45 764.07 326.80 756.45 320.50 C 749.83 315.12 747.95 306.11 747.80 298.00 C 747.34 271.98 748.09 245.96 747.87 219.95 C 747.91 160.30 747.80 100.65 747.93 41.00 C 748.31 30.68 747.25 18.82 754.59 10.48 C 760.20 3.75 769.38 2.29 777.64 1.83 M 797.07 44.07 C 796.98 124.55 797.06 205.02 797.03 285.49 C 819.12 285.50 841.22 285.51 863.31 285.49 C 863.31 205.00 863.32 124.52 863.31 44.03 C 841.23 44.06 819.15 43.98 797.07 44.07 Z" />
<path fill="#fc9c11" opacity="1.00" d=" M 937.00 6.02 C 943.58 2.08 951.54 2.00 958.97 2.03 C 974.31 2.80 989.68 2.40 1005.04 2.50 C 1021.03 2.51 1037.03 2.52 1053.03 2.31 C 1061.11 2.16 1069.76 4.53 1075.24 10.79 C 1080.46 16.51 1081.92 24.51 1082.39 31.98 C 1080.97 56.24 1081.83 80.57 1081.59 104.86 C 1065.32 106.01 1049.03 104.58 1032.76 105.23 C 1032.74 84.99 1032.76 64.75 1032.75 44.52 C 1013.03 43.24 993.27 44.14 973.53 44.00 C 973.37 62.01 973.92 80.04 973.10 98.03 C 973.10 100.88 974.24 103.68 976.53 105.45 C 1005.51 131.47 1032.89 159.20 1061.83 185.26 C 1067.82 190.89 1074.57 196.18 1078.45 203.58 C 1082.36 214.56 1081.90 226.46 1081.90 237.95 C 1081.68 251.67 1081.26 265.41 1082.15 279.11 C 1082.73 287.21 1082.18 295.33 1081.18 303.37 C 1080.49 308.75 1079.11 314.26 1075.66 318.58 C 1072.36 322.96 1067.19 325.66 1061.82 326.44 C 1046.98 328.57 1031.96 327.88 1017.02 328.00 C 1000.67 328.00 984.32 328.00 967.97 328.00 C 958.32 327.93 948.29 328.56 939.13 324.98 C 933.17 322.78 928.12 317.87 926.55 311.61 C 924.56 303.94 924.20 295.93 924.12 288.04 C 924.57 265.55 924.30 243.06 924.37 220.57 C 940.75 220.55 957.14 220.56 973.53 220.56 C 973.54 242.54 973.53 264.52 973.53 286.49 C 993.27 286.50 1013.01 286.51 1032.75 286.49 C 1032.79 269.99 1032.65 253.48 1032.82 236.97 C 1032.90 231.34 1034.76 224.35 1029.88 220.11 C 1019.89 211.84 1010.84 202.53 1001.35 193.71 C 983.11 176.26 965.00 158.67 946.33 141.67 C 941.97 137.67 937.56 133.72 933.41 129.49 C 929.08 125.06 926.26 119.24 925.41 113.10 C 923.49 99.49 924.19 85.71 924.33 72.01 C 924.53 59.68 923.76 47.34 924.27 35.02 C 924.65 29.01 925.02 22.89 927.05 17.17 C 928.68 12.28 932.74 8.68 937.00 6.02 Z" />
<path fill="#fc9c11" opacity="1.00" d=" M 76.71 166.74 C 98.46 157.60 123.50 154.23 146.21 161.86 C 171.01 169.95 190.46 189.10 204.83 210.27 C 187.85 193.13 166.09 179.82 142.00 176.06 C 123.29 173.05 103.83 177.14 87.37 186.33 C 80.03 190.56 72.74 194.94 66.03 200.12 C 54.94 208.64 45.69 219.51 39.04 231.81 C 31.38 245.82 27.02 261.41 24.76 277.15 C 21.51 306.24 29.64 336.05 45.63 360.39 C 56.45 377.09 70.83 391.22 86.68 403.14 C 60.50 393.41 37.31 375.54 21.35 352.59 C 11.64 338.54 4.81 322.52 1.20 305.84 C -0.72 295.30 0.45 284.53 1.11 273.93 C 3.53 242.98 15.85 212.15 38.46 190.43 C 49.20 179.71 62.90 172.66 76.71 166.74 Z" />
<path fill="#fc9c11" opacity="1.00" d=" M 95.01 214.06 C 107.80 208.33 122.04 204.68 136.11 206.66 C 155.35 208.85 174.41 217.98 185.84 234.00 C 194.99 246.96 200.33 263.08 199.02 279.02 C 197.55 296.54 185.63 311.89 170.37 319.99 C 179.28 309.32 186.36 296.19 186.41 281.98 C 186.65 267.03 178.75 252.97 167.81 243.20 C 164.09 239.60 159.26 237.56 154.58 235.53 C 143.45 230.87 130.92 228.83 119.04 231.61 C 105.01 234.78 93.00 244.06 84.50 255.43 C 81.59 259.53 78.15 263.27 75.72 267.70 C 66.10 285.47 68.22 306.71 71.67 325.86 C 73.32 334.36 75.10 342.99 79.25 350.69 C 87.91 367.33 102.74 379.77 118.43 389.56 C 139.36 402.41 162.50 411.37 186.18 417.66 C 153.25 420.86 119.97 411.08 91.88 394.20 C 69.18 377.15 50.84 353.01 43.96 325.17 C 38.03 301.44 42.58 276.02 53.44 254.39 C 62.25 236.79 77.05 222.21 95.01 214.06 Z" />
<path fill="#fc9c11" opacity="1.00" d=" M 83.61 297.71 C 92.92 320.55 109.83 340.52 131.66 352.23 C 148.23 361.22 167.29 365.01 186.05 364.61 C 205.61 364.96 224.82 360.24 243.42 354.63 C 271.83 346.05 298.44 332.69 326.16 322.24 C 350.97 312.78 376.69 305.25 403.12 302.10 C 426.70 299.23 450.77 300.01 474.02 305.02 C 496.34 309.77 517.73 318.40 537.50 329.76 C 515.51 328.19 493.40 328.57 471.42 330.19 C 445.26 332.28 419.05 336.40 394.22 345.13 C 385.08 348.29 376.40 352.57 367.61 356.57 C 345.50 366.68 323.40 376.86 300.74 385.72 C 275.47 395.55 249.25 403.97 222.06 406.01 C 204.57 407.38 186.99 405.32 169.90 401.59 C 144.63 395.97 119.27 384.68 102.82 363.98 C 87.88 345.52 82.59 321.03 83.61 297.71 Z" />
<path fill="#fc9c11" opacity="1.00" d=" M 647.56 351.96 C 651.59 351.91 655.80 351.61 659.73 352.07 C 659.83 358.58 659.79 365.09 659.74 371.60 C 669.04 371.79 678.35 371.64 687.65 371.68 C 687.66 365.08 687.64 358.48 687.66 351.88 C 691.71 351.87 695.75 351.87 699.81 351.88 C 699.82 368.92 699.81 385.96 699.81 403.00 C 695.76 403.00 691.71 403.00 687.66 403.00 C 687.63 395.56 687.69 388.13 687.62 380.71 C 678.34 380.74 669.06 380.70 659.79 380.73 C 659.77 388.15 659.78 395.57 659.78 403.00 C 655.68 402.93 651.58 403.17 647.50 402.85 C 647.69 385.89 647.57 368.92 647.56 351.96 Z" />
<path fill="#fc9c11" opacity="1.00" d=" M 880.21 359.16 C 887.39 351.36 899.12 349.85 909.03 352.07 C 917.22 353.80 924.07 360.38 926.02 368.56 C 922.09 369.21 918.15 369.74 914.25 370.47 C 913.02 367.90 911.85 365.18 909.61 363.33 C 905.69 359.90 899.79 359.63 895.08 361.42 C 890.06 363.40 887.01 368.64 886.48 373.85 C 885.98 378.94 886.16 384.52 889.12 388.91 C 893.73 396.23 905.89 397.13 911.25 390.22 C 912.55 388.62 913.32 386.68 914.15 384.81 C 918.09 385.42 922.04 386.04 925.99 386.66 C 924.23 394.27 918.17 400.60 910.68 402.77 C 904.16 404.67 897.05 404.63 890.56 402.65 C 882.55 400.20 876.09 393.29 874.38 385.07 C 872.65 376.20 873.64 365.92 880.21 359.16 Z" />
<path fill="#fc9c11" opacity="1.00" d=" M 728.66 351.80 C 733.25 351.94 737.85 351.87 742.45 351.84 C 749.68 368.86 756.74 385.95 763.88 403.00 C 759.40 402.95 754.93 403.10 750.47 402.91 C 749.05 398.97 747.46 395.11 745.95 391.22 C 738.77 391.24 731.60 391.17 724.44 391.25 C 722.97 395.18 721.45 399.09 719.94 403.00 C 715.78 403.00 711.62 403.00 707.47 403.00 C 714.57 385.95 721.36 368.76 728.66 351.80 M 727.56 383.30 C 732.62 383.32 737.68 383.31 742.75 383.31 C 740.17 376.85 737.65 370.37 735.04 363.93 C 732.50 370.37 730.04 376.84 727.56 383.30 Z" />
<path fill="#fc9c11" opacity="1.00" d=" M 761.48 351.88 C 765.90 351.86 770.34 351.88 774.77 351.87 C 779.68 364.69 784.52 377.55 789.40 390.38 C 794.00 377.56 798.75 364.79 803.29 351.95 C 807.42 351.79 811.55 351.88 815.69 351.90 C 809.30 369.02 802.40 385.95 795.81 403.00 C 791.18 403.00 786.55 403.00 781.92 402.99 C 775.10 385.96 768.28 368.92 761.48 351.88 Z" />
<path fill="#fc9c11" opacity="1.00" d=" M 812.97 402.99 C 819.98 385.95 826.98 368.91 834.00 351.87 C 838.66 351.87 843.34 351.87 848.01 351.87 C 855.15 368.91 862.27 385.95 869.38 403.00 C 864.95 403.06 860.52 403.02 856.09 403.03 C 854.53 399.10 853.00 395.16 851.47 391.23 C 844.30 391.21 837.14 391.22 829.99 391.22 C 828.50 395.11 826.92 398.97 825.56 402.91 C 821.36 403.16 817.16 402.99 812.97 402.99 M 840.43 364.06 C 838.02 370.50 835.50 376.89 833.05 383.31 C 838.11 383.31 843.17 383.32 848.23 383.30 C 845.60 376.90 843.34 370.34 840.43 364.06 Z" />
<path fill="#fc9c11" opacity="1.00" d=" M 936.31 351.88 C 940.33 351.84 944.36 351.93 948.39 351.82 C 948.67 368.86 948.39 385.92 948.53 402.97 C 944.45 403.09 940.38 403.01 936.32 403.02 C 936.31 385.98 936.31 368.93 936.31 351.88 Z" />
<path fill="#fc9c11" opacity="1.00" d=" M 959.60 351.88 C 963.65 351.87 967.71 351.87 971.78 351.88 C 971.79 365.93 971.77 379.97 971.79 394.02 C 981.06 394.04 990.35 394.01 999.63 394.04 C 999.62 397.02 999.62 400.01 999.63 403.00 C 986.29 403.07 972.94 403.02 959.60 403.03 C 959.59 385.98 959.58 368.93 959.60 351.88 Z" />
<path fill="#fc9c11" opacity="1.00" d=" M 1008.82 351.88 C 1012.87 351.87 1016.93 351.87 1020.99 351.88 C 1021.00 368.93 1021.00 385.98 1021.00 403.03 C 1016.93 403.03 1012.87 403.03 1008.82 403.03 C 1008.81 385.98 1008.81 368.93 1008.82 351.88 Z" />
<path fill="#fc9c11" opacity="1.00" d=" M 1032.10 351.88 C 1036.15 351.87 1040.21 351.87 1044.28 351.88 C 1044.30 360.20 1044.26 368.53 1044.30 376.85 C 1051.95 368.61 1059.59 360.36 1067.35 352.21 C 1071.97 351.40 1076.97 352.10 1081.75 351.89 C 1075.26 358.92 1068.70 365.89 1062.19 372.90 C 1069.07 382.92 1075.60 393.19 1082.72 403.04 C 1077.91 403.02 1073.11 403.05 1068.31 403.02 C 1063.43 395.97 1058.39 389.04 1053.62 381.93 C 1050.32 385.09 1047.37 388.58 1044.26 391.92 C 1044.29 395.62 1044.27 399.32 1044.28 403.03 C 1040.21 403.03 1036.15 403.03 1032.10 403.03 C 1032.09 385.98 1032.09 368.93 1032.10 351.88 Z" />
<path fill="#fc9c11" opacity="1.00" d=" M 400.56 380.42 C 439.40 367.32 481.66 362.65 522.03 371.01 C 540.44 374.90 558.61 381.09 574.64 391.10 C 543.81 384.60 511.85 387.49 481.20 393.54 C 443.80 401.18 407.48 413.79 372.88 429.85 C 336.09 445.79 296.91 457.74 256.58 459.00 L 250.28 459.00 C 223.17 458.55 194.48 453.04 172.92 435.57 C 192.52 440.36 212.65 444.81 232.95 443.04 C 254.54 441.13 274.91 433.10 294.84 425.10 C 315.07 416.76 335.05 407.83 355.08 399.04 C 370.08 392.45 384.96 385.51 400.56 380.42 Z" />
</g>
</svg>
